<svg xmlns="http://www.w3.org/2000/svg" xmlns:xlink="http://www.w3.org/1999/xlink" width="84" height="84" viewBox="0 0 84 84">
  <defs>
    <filter id="Ellipse_1" x="0" y="0" width="84" height="84" filterUnits="userSpaceOnUse">
      <feOffset dy="3" input="SourceAlpha"/>
      <feGaussianBlur stdDeviation="5" result="blur"/>
      <feFlood flood-opacity="0.161"/>
      <feComposite operator="in" in2="blur"/>
      <feComposite in="SourceGraphic"/>
    </filter>
  </defs>
  <g id="Composant_83_1" data-name="Composant 83 – 1" transform="translate(15 12)">
    <g id="Groupe_276" data-name="Groupe 276" transform="translate(-399 1356) rotate(-90)">
      <g transform="matrix(0, 1, -1, 0, 1368, 384)" filter="url(#Ellipse_1)">
        <circle id="Ellipse_1-2" data-name="Ellipse 1" cx="27" cy="27" r="27" transform="translate(15 66) rotate(-90)" fill="#fff"/>
      </g>
      <g id="expand_less_black_24dp" transform="translate(1348 408) rotate(90)">
        <path id="Tracé_2" data-name="Tracé 2" d="M0,0H36V36H0Z" fill="none"/>
        <path id="Tracé_3" data-name="Tracé 3" d="M14.331,8.892,6.882,16.341A1.618,1.618,0,0,0,9.17,18.629l6.313-6.3,6.3,6.3a1.618,1.618,0,0,0,2.288-2.288L16.619,8.892A1.616,1.616,0,0,0,14.331,8.892Z" transform="translate(2.518 3.818)" fill="#f1ac04"/>
      </g>
    </g>
  </g>
</svg>
