<svg xmlns="http://www.w3.org/2000/svg" width="62.189" height="39.885" viewBox="0 0 62.189 39.885">
  <g id="Groupe_284" data-name="Groupe 284" transform="translate(-673.811 -1368.115)">
    <g id="Groupe_279" data-name="Groupe 279" transform="translate(665.887 1369.579)">
      <rect id="Rectangle_141" data-name="Rectangle 141" width="27" height="28" rx="4" transform="translate(43.113 10.421)" fill="#f1ac04"/>
      <path id="Tracé_178" data-name="Tracé 178" d="M4.653.288a.994.994,0,0,0-1.4,0L.283,3.259a.99.99,0,0,0,1.4,1.4l1.28-1.28V17.819a.99.99,0,1,0,1.98,0V3.379l1.28,1.28a.99.99,0,1,0,1.4-1.4Z" transform="translate(66.448 21.031) rotate(90)" fill="#fff"/>
      <path id="Tracé_179" data-name="Tracé 179" d="M4.653.288a.994.994,0,0,0-1.4,0L.283,3.259a.99.99,0,0,0,1.4,1.4l1.28-1.28V17.819a.99.99,0,1,0,1.98,0V3.379l1.28,1.28a.99.99,0,1,0,1.4-1.4Z" transform="translate(65.587 28.98) rotate(90)" fill="#fff"/>
    </g>
    <g id="bulldozer" transform="translate(673.811 1368.115)">
      <path id="Tracé_117" data-name="Tracé 117" d="M54.281,131.775l-2.669-2.669a10.527,10.527,0,0,1-2.888-5.4l-.73-3.651a2.7,2.7,0,0,0-2.642-2.166H45.3a2.7,2.7,0,0,0-2.695,2.695v3.269H38.7a6.873,6.873,0,0,0-5.467-4.206v-6.178a3.253,3.253,0,0,0-3.249-3.249H28.117v-4.176a3.442,3.442,0,0,1,1.015-2.45l.44-.44a.852.852,0,0,0-1.2-1.2l-.44.44a5.134,5.134,0,0,0-1.514,3.654v4.176H21.3v-5.251A4.979,4.979,0,0,0,16.327,100H10.249a4.289,4.289,0,0,0-4.284,4.284v15.368a6.815,6.815,0,0,0,.852,13.577H32.377a6.862,6.862,0,0,0,6.319-4.26H42.6v1.586a2.678,2.678,0,0,0,2.675,2.675h8.4a.852.852,0,0,0,.6-1.455ZM36.8,123.857H27.951a5.11,5.11,0,0,1,8.852,0ZM29.98,111.928a1.547,1.547,0,0,1,1.545,1.545V119.6H21.3v-7.668ZM12.74,108.52a.813.813,0,0,1-.812-.812v-.932a.813.813,0,0,1,.812-.812H19.6v2.556H12.74Zm-5.072-4.236a2.583,2.583,0,0,1,2.58-2.58h6.079a3.274,3.274,0,0,1,3.19,2.556H12.74a2.519,2.519,0,0,0-2.516,2.516v.932a2.519,2.519,0,0,0,2.516,2.516H19.6V119.6H7.668ZM1.7,126.413a5.112,5.112,0,1,1,5.112,5.112A5.118,5.118,0,0,1,1.7,126.413Zm9.613,5.112a6.8,6.8,0,0,0,0-10.224H27.881a6.806,6.806,0,0,0-1.823,2.556H18.745a2.556,2.556,0,0,0,0,5.112h7.314a6.807,6.807,0,0,0,1.823,2.556Zm21.06,0a5.15,5.15,0,0,1-4.426-2.556H36.8A5.15,5.15,0,0,1,32.377,131.525Zm5.712-4.26H18.745a.852.852,0,0,1,0-1.7H42.6v1.7Zm7.187,4.26a.972.972,0,0,1-.971-.971v-9.967a.992.992,0,0,1,.991-.991h.055a.993.993,0,0,1,.971.8l.73,3.651a12.224,12.224,0,0,0,3.354,6.266l1.215,1.215Z" transform="translate(0 -100)"/>
      <path id="Tracé_118" data-name="Tracé 118" d="M34.2,323.278a.852.852,0,0,0-1.2,0,3.408,3.408,0,0,0,0,4.818.852.852,0,1,0,1.206-1.2,1.7,1.7,0,0,1,0-2.411A.852.852,0,0,0,34.2,323.278Z" transform="translate(-28.592 -299.276)"/>
      <path id="Tracé_119" data-name="Tracé 119" d="M73.22,328.1a.852.852,0,0,0,1.2,0,3.408,3.408,0,0,0,0-4.818.852.852,0,1,0-1.206,1.2,1.7,1.7,0,0,1,0,2.411A.852.852,0,0,0,73.22,328.1Z" transform="translate(-65.199 -299.276)"/>
    </g>
  </g>
</svg>
