<svg xmlns="http://www.w3.org/2000/svg" width="77.922" height="35.291" viewBox="0 0 77.922 35.291">
  <g id="Groupe_279" data-name="Groupe 279" transform="translate(9 -7)">
    <rect id="Rectangle_141" data-name="Rectangle 141" width="27" height="28" rx="4" transform="translate(41.922 14.291)" fill="#f1ac04"/>
    <path id="Tracé_178" data-name="Tracé 178" d="M4.038.25a.862.862,0,0,0-1.215,0L.245,2.828A.859.859,0,0,0,1.46,4.043L2.571,2.932V15.462a.859.859,0,1,0,1.718,0V2.932L5.4,4.043A.859.859,0,1,0,6.615,2.828Z" transform="translate(66.259 25.659) rotate(90)" fill="#fff"/>
    <path id="Tracé_179" data-name="Tracé 179" d="M4.038.25a.862.862,0,0,0-1.215,0L.245,2.828A.859.859,0,0,0,1.46,4.043L2.571,2.932V15.462a.859.859,0,1,0,1.718,0V2.932L5.4,4.043A.859.859,0,1,0,6.615,2.828Z" transform="translate(61.633 34.251) rotate(90)" fill="#fff"/>
    <path id="truck" d="M56.666,124.569v-.927a5.791,5.791,0,0,0-5.784-5.784H48.305a.929.929,0,0,0-.929.929v6a2.225,2.225,0,0,0-.929,1.807v12.635h-6.5v-1.858H43.66a.929.929,0,0,0,.929-.929v-15.9A4.545,4.545,0,0,0,40.05,116H4.54A4.545,4.545,0,0,0,0,120.54v15.9a.929.929,0,0,0,.929.929H2.787v3.719a4.644,4.644,0,1,0,8.361,2.784h1.858a4.645,4.645,0,1,0,8.36-2.784v-3.719H34.371v1.858H32.513a.929.929,0,0,0-.929.929v3.716a.929.929,0,0,0,.929.929h1.951a4.645,4.645,0,0,0,9.1,0h7.2a4.393,4.393,0,0,0,8.686-.929V128.432A4.077,4.077,0,0,0,56.666,124.569Zm.929,7.223H55.71a.9.9,0,0,1-.9-.9v-.053a.9.9,0,0,1,.9-.9h1.884Zm-8.361-12.076h1.647a3.931,3.931,0,0,1,3.926,3.926v.719H49.234Zm-2.787,23.224h-2.88a4.626,4.626,0,0,0-.838-1.858h3.718ZM1.858,120.54a2.685,2.685,0,0,1,2.682-2.682H40.05a2.685,2.685,0,0,1,2.682,2.682v14.968H1.858ZM6.5,146.655a2.787,2.787,0,1,1,2.627-3.717h0a.923.923,0,0,0,.119.454A2.785,2.785,0,0,1,6.5,146.655Zm11.147,0a2.784,2.784,0,0,1-2.745-3.262.923.923,0,0,0,.119-.454h0a2.787,2.787,0,1,1,2.627,3.717Zm1.858-7.043a4.64,4.64,0,0,0-6.114,2.4H10.758a4.64,4.64,0,0,0-6.114-2.4v-2.247H19.508Zm16.721-2.247h1.858v1.858H36.229Zm-2.787,3.716H35.3a4.626,4.626,0,0,0-.838,1.858H33.442Zm5.574,5.574a2.787,2.787,0,1,1,2.787-2.787A2.79,2.79,0,0,1,39.016,146.655Zm9.289-20.066a.371.371,0,0,1,.37-.37h6.706a2.215,2.215,0,0,1,2.182,1.858H55.71a2.764,2.764,0,0,0-2.76,2.76v.053a2.764,2.764,0,0,0,2.76,2.761h1.884v6.634a4.388,4.388,0,0,0-6.828,2.655H48.305ZM55.06,146.4a2.535,2.535,0,1,1,2.535-2.535A2.538,2.538,0,0,1,55.06,146.4Z" transform="translate(-9 -109)"/>
  </g>
</svg>
