<svg xmlns="http://www.w3.org/2000/svg" xmlns:xlink="http://www.w3.org/1999/xlink" width="63.063" height="46.99" viewBox="0 0 63.063 46.99">
  <defs>
    <clipPath id="clip-path">
      <path id="Mask" d="M0,5.6A5.547,5.547,0,0,1,5.5,0,5.547,5.547,0,0,1,11,5.6C11,9.8,5.5,16,5.5,16S0,9.8,0,5.6Z" fill="#fff"/>
    </clipPath>
  </defs>
  <g id="Groupe_279" data-name="Groupe 279" transform="translate(-11.861 -0.01)">
    <rect id="Rectangle_141" data-name="Rectangle 141" width="27" height="28" rx="4" transform="translate(47.924 19)" fill="#f1ac04"/>
    <g id="Groupe_de_masques_19" data-name="Groupe de masques 19" transform="translate(56.037 24.666)" clip-path="url(#clip-path)">
      <g id="Symbols" transform="translate(0)">
        <g id="Icon_Location" data-name="Icon/Location">
          <path id="Mask-2" data-name="Mask" d="M10.742,2A5.738,5.738,0,0,0,5,7.742c0,4.307,5.742,10.665,5.742,10.665s5.742-6.358,5.742-10.665A5.738,5.738,0,0,0,10.742,2Zm0,7.793a2.051,2.051,0,1,1,2.051-2.051,2.052,2.052,0,0,1-2.051,2.051Z" transform="translate(-5 -2)" fill="#fff"/>
        </g>
      </g>
    </g>
    <g id="logistique" transform="translate(11.861 0.01)">
      <path id="Tracé_120" data-name="Tracé 120" d="M36.2,52a2.2,2.2,0,1,0,2.2,2.2A2.2,2.2,0,0,0,36.2,52Zm0,2.93a.732.732,0,1,1,.732-.732A.733.733,0,0,1,36.2,54.93Z" transform="translate(-9.097 -13.913)"/>
      <path id="Tracé_121" data-name="Tracé 121" d="M12.2,52a2.2,2.2,0,1,0,2.2,2.2A2.2,2.2,0,0,0,12.2,52Zm0,2.93a.732.732,0,1,1,.732-.732A.733.733,0,0,1,12.2,54.93Z" transform="translate(-2.676 -13.913)"/>
      <path id="Tracé_122" data-name="Tracé 122" d="M14.2,14.395A2.2,2.2,0,1,0,12,12.2,2.2,2.2,0,0,0,14.2,14.395Zm0-2.93a.732.732,0,1,1-.732.732A.733.733,0,0,1,14.2,11.465Z" transform="translate(-3.211 -2.676)"/>
      <path id="Tracé_123" data-name="Tracé 123" d="M54.2,36a2.2,2.2,0,1,0,2.2,2.2A2.2,2.2,0,0,0,54.2,36Zm0,2.93a.732.732,0,1,1,.732-.732A.733.733,0,0,1,54.2,38.93Z" transform="translate(-13.913 -9.632)"/>
      <path id="Tracé_124" data-name="Tracé 124" d="M40.984,23.491c.011-.262.032-.524.032-.786a18.249,18.249,0,0,0-2.622-9.426,8.824,8.824,0,0,0,1.157-4.346V8.789a8.782,8.782,0,0,0-16.4-4.38,18.521,18.521,0,0,0-8.3,1.76A5.123,5.123,0,0,0,6.885,12.6l.3.4a18.2,18.2,0,0,0-2.766,8.972H2.93a1.466,1.466,0,0,0-1.465,1.465V38.087A1.466,1.466,0,0,0,0,39.551v1.465a1.466,1.466,0,0,0,1.465,1.465H4.9a5.116,5.116,0,0,0,9.251,0h8.328a5.116,5.116,0,0,0,9.251,0h1.967a1.466,1.466,0,0,0,1.465-1.465V39a2.232,2.232,0,0,0-.065-.533l-.469-1.875a18.313,18.313,0,0,0,2.906-3.155l2.755,3.674,4.1-5.469a5.123,5.123,0,0,0-3.4-8.15ZM30.762,1.465a7.333,7.333,0,0,1,7.324,7.324v.143a7.355,7.355,0,0,1-1.565,4.525l-5.759,7.331L25,13.457a7.354,7.354,0,0,1-1.565-4.525V8.789A7.333,7.333,0,0,1,30.762,1.465ZM10.986,5.859a3.662,3.662,0,0,1,2.93,5.859l-2.93,3.907-2.93-3.907a3.662,3.662,0,0,1,2.93-5.859ZM2.93,23.438H8.789v5.58l3.662-1.831,3.662,1.831v-5.58h5.859V38.087H14.147a5.116,5.116,0,0,0-9.251,0H2.93Zm7.324,0h4.395v3.21l-2.2-1.1-2.2,1.1Zm13.184,4.395h6.913a.732.732,0,0,1,.71.554l.228.91H27.832a1.466,1.466,0,0,0-1.465,1.465v1.465a1.466,1.466,0,0,0,1.465,1.465h4.555l1.1,4.395H31.725A5.114,5.114,0,0,0,23.438,36.7Zm8.583,4.395H27.832V30.762h3.823ZM1.465,41.016V39.551H4.453a4.607,4.607,0,0,0,0,1.465Zm8.057,2.93a3.662,3.662,0,1,1,3.662-3.662A3.666,3.666,0,0,1,9.522,43.946Zm5.068-2.93a4.607,4.607,0,0,0,0-1.465h7.442a4.607,4.607,0,0,0,0,1.465Zm12.51,2.93a3.662,3.662,0,1,1,3.662-3.662A3.666,3.666,0,0,1,27.1,43.946Zm5.068-2.93a4.607,4.607,0,0,0,0-1.465h1.523v1.465Zm2.054-6.024-1.74-6.96a2.2,2.2,0,0,0-2.132-1.664H23.438v-2.93a1.466,1.466,0,0,0-1.465-1.465H5.886a16.738,16.738,0,0,1,2.246-7.712l2.854,3.806,4.1-5.469a5.156,5.156,0,0,0,1.025-3.076,5.086,5.086,0,0,0-.461-2.113,16.624,16.624,0,0,1,6.831-1.543,8.75,8.75,0,0,0-.51,2.923v.143a8.827,8.827,0,0,0,1.878,5.43l6.911,8.8,6.716-8.548a16.8,16.8,0,0,1,2.073,8.1c0,.264-.021.53-.032.8a5.121,5.121,0,0,0-3.337,8.139l.423.564a16.874,16.874,0,0,1-2.382,2.788Zm8.991-4.231-2.93,3.907-2.93-3.907a3.662,3.662,0,1,1,5.859,0Z" transform="translate(0)"/>
      <path id="Tracé_125" data-name="Tracé 125" d="M39.859,15.719A5.859,5.859,0,1,0,34,9.859,5.866,5.866,0,0,0,39.859,15.719Zm0-10.254a4.395,4.395,0,1,1-4.395,4.395A4.4,4.4,0,0,1,39.859,5.465Z" transform="translate(-9.097 -1.07)"/>
      <path id="Tracé_126" data-name="Tracé 126" d="M24,26h1.465v1.465H24Z" transform="translate(-6.422 -6.957)"/>
      <path id="Tracé_127" data-name="Tracé 127" d="M28,26h1.465v1.465H28Z" transform="translate(-7.492 -6.957)"/>
      <path id="Tracé_128" data-name="Tracé 128" d="M32,26h1.465v1.465H32Z" transform="translate(-8.562 -6.957)"/>
    </g>
  </g>
</svg>
