<svg xmlns="http://www.w3.org/2000/svg" width="149.503" height="26.884" viewBox="0 0 149.503 26.884">
  <g id="Groupe_14945" data-name="Groupe 14945" transform="translate(-93.121 -276.508)">
    <path id="Tracé_1" data-name="Tracé 1" d="M162.014,276.508l-7.182,26.884h-9.107l-4.075-14.957-4,14.957h-7.287l7.221-26.884h9.357l3.874,14.727,3.95-14.727Z" transform="translate(-13.55)" fill="#fff"/>
    <path id="Tracé_2" data-name="Tracé 2" d="M224.662,276.508H184.448l-1.649,6.1h6.673l-5.561,20.747H191.2l5.561-20.747h13.08l-5.561,20.747h7.287l5.561-20.747h5.9l4.072-3.042Z" transform="translate(-32.627 0)" fill="#fff"/>
    <g id="Groupe_1" data-name="Groupe 1" transform="translate(201.179 276.508)">
      <path id="Tracé_3" data-name="Tracé 3" d="M263.616,281.942a1.8,1.8,0,0,1-.639-.326l.3-.562a1.873,1.873,0,0,0,.576.306,2.116,2.116,0,0,0,.681.113,1.34,1.34,0,0,0,.675-.146.447.447,0,0,0,.251-.4.317.317,0,0,0-.1-.24.789.789,0,0,0-.254-.157q-.152-.061-.422-.138a5.185,5.185,0,0,1-.606-.212,1.051,1.051,0,0,1-.4-.306.807.807,0,0,1-.165-.528,1.059,1.059,0,0,1,.212-.656,1.357,1.357,0,0,1,.592-.435,2.31,2.31,0,0,1,.876-.154,2.892,2.892,0,0,1,.711.085,1.982,1.982,0,0,1,.578.239l-.281.568a1.714,1.714,0,0,0-.485-.221,2.034,2.034,0,0,0-.562-.077,1.269,1.269,0,0,0-.68.157.473.473,0,0,0-.251.416.327.327,0,0,0,.1.247.769.769,0,0,0,.253.157c.1.039.245.087.436.146a5.187,5.187,0,0,1,.595.2,1.05,1.05,0,0,1,.394.291.756.756,0,0,1,.163.5,1.067,1.067,0,0,1-.213.661,1.357,1.357,0,0,1-.6.435,2.4,2.4,0,0,1-.89.154A2.873,2.873,0,0,1,263.616,281.942Z" transform="translate(-262.977 -277.088)"/>
      <path id="Tracé_4" data-name="Tracé 4" d="M269.774,281.861a1.485,1.485,0,0,1-.636-.578,1.662,1.662,0,0,1-.22-.863,2.378,2.378,0,0,1,.295-1.179,2.148,2.148,0,0,1,.835-.835,2.462,2.462,0,0,1,1.234-.305,2.2,2.2,0,0,1,.989.207,1.48,1.48,0,0,1,.636.578,1.657,1.657,0,0,1,.221.862,2.38,2.38,0,0,1-.3,1.179,2.147,2.147,0,0,1-.834.835,2.464,2.464,0,0,1-1.234.305A2.2,2.2,0,0,1,269.774,281.861Zm1.879-.644a1.519,1.519,0,0,0,.557-.6,1.762,1.762,0,0,0,.2-.824,1,1,0,0,0-.311-.774,1.24,1.24,0,0,0-.879-.29,1.536,1.536,0,0,0-.829.223,1.485,1.485,0,0,0-.554.6,1.783,1.783,0,0,0-.193.824,1.012,1.012,0,0,0,.309.774,1.235,1.235,0,0,0,.876.289A1.548,1.548,0,0,0,271.653,281.217Z" transform="translate(-265.138 -277.088)"/>
      <path id="Tracé_5" data-name="Tracé 5" d="M277.082,281.861a1.5,1.5,0,0,1-.647-.581,1.631,1.631,0,0,1-.226-.859,2.362,2.362,0,0,1,.3-1.179,2.173,2.173,0,0,1,.837-.835,2.475,2.475,0,0,1,1.24-.305,2.208,2.208,0,0,1,.884.165,1.245,1.245,0,0,1,.581.479l-.518.435a1.145,1.145,0,0,0-1-.452,1.588,1.588,0,0,0-.843.221,1.5,1.5,0,0,0-.562.6,1.758,1.758,0,0,0-.2.829,1,1,0,0,0,.314.777,1.278,1.278,0,0,0,.893.286,1.456,1.456,0,0,0,1.1-.446l.418.452a1.692,1.692,0,0,1-.677.468,2.471,2.471,0,0,1-.893.154A2.244,2.244,0,0,1,277.082,281.861Z" transform="translate(-267.791 -277.088)"/>
      <path id="Tracé_6" data-name="Tracé 6" d="M283.146,278.188h.716l-.771,3.857h-.716Z" transform="translate(-270.034 -277.119)"/>
      <path id="Tracé_7" data-name="Tracé 7" d="M286.5,278.177l-.2,1h1.868l-.116.589h-1.874l-.209,1.064h2.181l-.121.6h-2.892l.771-3.857h2.815l-.122.6Zm1.24-1.669h.826l-1.041.755H286.9Z" transform="translate(-271.039 -276.508)"/>
      <path id="Tracé_8" data-name="Tracé 8" d="M292.459,278.794h-1.278l.121-.606h3.273l-.127.606H293.17l-.644,3.25h-.716Z" transform="translate(-273.238 -277.119)"/>
      <path id="Tracé_9" data-name="Tracé 9" d="M297.512,278.177l-.2,1h1.868l-.116.589h-1.874l-.209,1.064h2.182l-.122.6h-2.892l.771-3.857h2.815l-.122.6Zm1.24-1.669h.826l-1.041.755h-.617Z" transform="translate(-275.047 -276.508)"/>
    </g>
    <g id="Groupe_2" data-name="Groupe 2" transform="translate(199.26 284.823)">
      <path id="Tracé_10" data-name="Tracé 10" d="M264.152,289.665l-.771,3.857h-.589l-1.581-2.7-.539,2.7h-.711l.772-3.857h.589l1.587,2.7.534-2.7Z" transform="translate(-259.96 -289.61)"/>
      <path id="Tracé_11" data-name="Tracé 11" d="M267.961,293.338a1.487,1.487,0,0,1-.636-.578,1.662,1.662,0,0,1-.22-.863,2.379,2.379,0,0,1,.294-1.179,2.147,2.147,0,0,1,.834-.835,2.464,2.464,0,0,1,1.234-.305,2.2,2.2,0,0,1,.989.207,1.483,1.483,0,0,1,.636.578,1.657,1.657,0,0,1,.22.862,2.379,2.379,0,0,1-.294,1.179,2.144,2.144,0,0,1-.835.835,2.463,2.463,0,0,1-1.234.305A2.2,2.2,0,0,1,267.961,293.338Zm1.879-.644a1.518,1.518,0,0,0,.557-.6,1.769,1.769,0,0,0,.2-.824,1.007,1.007,0,0,0-.311-.774,1.243,1.243,0,0,0-.879-.289,1.538,1.538,0,0,0-.83.223,1.488,1.488,0,0,0-.553.6,1.783,1.783,0,0,0-.193.824,1.013,1.013,0,0,0,.309.774,1.235,1.235,0,0,0,.876.289A1.549,1.549,0,0,0,269.84,292.694Z" transform="translate(-262.56 -289.579)"/>
      <path id="Tracé_12" data-name="Tracé 12" d="M275.073,293.224a1.224,1.224,0,0,1-.4-.97,2.234,2.234,0,0,1,.044-.413l.435-2.176h.716l-.435,2.165a2.081,2.081,0,0,0-.038.342.737.737,0,0,0,.22.581.923.923,0,0,0,.634.2,1.021,1.021,0,0,0,.741-.27,1.631,1.631,0,0,0,.4-.854l.429-2.159h.706l-.441,2.209a2.239,2.239,0,0,1-.65,1.275,1.818,1.818,0,0,1-1.256.427A1.609,1.609,0,0,1,275.073,293.224Z" transform="translate(-265.313 -289.61)"/>
      <path id="Tracé_13" data-name="Tracé 13" d="M285.519,289.665l-2.452,3.857h-.7l-.909-3.857h.739l.688,2.964,1.9-2.964Z" transform="translate(-267.78 -289.61)"/>
      <path id="Tracé_14" data-name="Tracé 14" d="M288.642,290.266l-.2,1h1.868l-.116.589h-1.874l-.209,1.064h2.181l-.122.6h-2.892l.771-3.857h2.815l-.122.6Z" transform="translate(-269.9 -289.61)"/>
      <path id="Tracé_15" data-name="Tracé 15" d="M293.855,289.665h.716l-.649,3.25h2.016l-.122.606h-2.732Z" transform="translate(-272.011 -289.61)"/>
      <path id="Tracé_16" data-name="Tracé 16" d="M299.041,289.665h.716l-.65,3.25h2.017l-.122.606H298.27Z" transform="translate(-273.898 -289.61)"/>
      <path id="Tracé_17" data-name="Tracé 17" d="M304.818,290.266l-.2,1h1.868l-.116.589H304.5l-.209,1.064h2.181l-.122.6h-2.892l.772-3.857h2.814l-.121.6Z" transform="translate(-275.785 -289.61)"/>
    </g>
    <g id="Groupe_3" data-name="Groupe 3" transform="translate(197.307 292.125)">
      <path id="Tracé_18" data-name="Tracé 18" d="M257.662,301.142h1.559a2.367,2.367,0,0,1,1,.2,1.457,1.457,0,0,1,.647.553,1.559,1.559,0,0,1,.223.843,2.311,2.311,0,0,1-.3,1.19,2.046,2.046,0,0,1-.846.794,2.71,2.71,0,0,1-1.256.281h-1.8Zm1.052,3.25a1.776,1.776,0,0,0,.882-.209,1.448,1.448,0,0,0,.575-.576,1.692,1.692,0,0,0,.2-.829.95.95,0,0,0-.314-.758,1.359,1.359,0,0,0-.915-.272h-.887l-.529,2.644Z" transform="translate(-256.891 -301.087)"/>
      <path id="Tracé_19" data-name="Tracé 19" d="M265.4,301.743l-.2,1h1.868l-.116.589h-1.873l-.209,1.064h2.181l-.121.6h-2.893l.772-3.857h2.815l-.122.6Z" transform="translate(-259.493 -301.087)"/>
      <path id="Tracé_20" data-name="Tracé 20" d="M273.755,301.748h-1.278l.121-.606h3.272l-.127.606h-1.278l-.644,3.25h-.716Z" transform="translate(-262.562 -301.087)"/>
      <path id="Tracé_21" data-name="Tracé 21" d="M280.885,303.244a1.536,1.536,0,0,1-.831.531l.689,1.223h-.76l-.634-1.129h-.959L278.17,305h-.722l.772-3.857h1.5a1.7,1.7,0,0,1,1.082.305,1.037,1.037,0,0,1,.383.857A1.486,1.486,0,0,1,280.885,303.244Zm-.71-.2a.822.822,0,0,0,.286-.675.54.54,0,0,0-.212-.465,1.007,1.007,0,0,0-.608-.157h-.821l-.309,1.531h.854A1.251,1.251,0,0,0,280.175,303.045Z" transform="translate(-264.37 -301.087)"/>
      <path id="Tracé_22" data-name="Tracé 22" d="M286.182,304.106h-1.939l-.556.893h-.766l2.507-3.857h.711L287.1,305h-.711Zm-.132-.562-.391-1.7-1.064,1.7Z" transform="translate(-266.361 -301.087)"/>
      <path id="Tracé_23" data-name="Tracé 23" d="M294.456,301.142,293.685,305H293.1l-1.581-2.7-.54,2.7h-.711l.772-3.857h.589l1.587,2.7.534-2.7Z" transform="translate(-269.033 -301.087)"/>
      <path id="Tracé_24" data-name="Tracé 24" d="M297.553,304.9a1.811,1.811,0,0,1-.639-.326l.3-.562a1.859,1.859,0,0,0,.576.306,2.11,2.11,0,0,0,.68.113,1.339,1.339,0,0,0,.675-.146.447.447,0,0,0,.251-.4.318.318,0,0,0-.1-.24.791.791,0,0,0-.253-.156c-.1-.041-.242-.087-.422-.138a5.14,5.14,0,0,1-.606-.212,1.047,1.047,0,0,1-.4-.306.812.812,0,0,1-.165-.528,1.058,1.058,0,0,1,.212-.656,1.356,1.356,0,0,1,.592-.435,2.314,2.314,0,0,1,.876-.154,2.885,2.885,0,0,1,.711.085,1.984,1.984,0,0,1,.579.239l-.281.568a1.7,1.7,0,0,0-.485-.221,2.029,2.029,0,0,0-.562-.077,1.272,1.272,0,0,0-.681.157.473.473,0,0,0-.251.416.328.328,0,0,0,.1.247.776.776,0,0,0,.254.157q.149.058.435.146a5.21,5.21,0,0,1,.595.2,1.051,1.051,0,0,1,.394.291.752.752,0,0,1,.163.5,1.063,1.063,0,0,1-.212.661,1.357,1.357,0,0,1-.6.435,2.4,2.4,0,0,1-.89.154A2.875,2.875,0,0,1,297.553,304.9Z" transform="translate(-271.452 -301.056)"/>
      <path id="Tracé_25" data-name="Tracé 25" d="M306.066,301.447a1.037,1.037,0,0,1,.383.857,1.559,1.559,0,0,1-.223.846,1.434,1.434,0,0,1-.639.545,2.345,2.345,0,0,1-.978.19h-.942L303.441,305h-.716l.772-3.857h1.487A1.7,1.7,0,0,1,306.066,301.447Zm-.622,1.6a.826.826,0,0,0,.284-.675.542.542,0,0,0-.212-.465,1.008,1.008,0,0,0-.609-.157h-.815l-.3,1.531h.849A1.237,1.237,0,0,0,305.444,303.045Z" transform="translate(-273.567 -301.087)"/>
      <path id="Tracé_26" data-name="Tracé 26" d="M310,304.815a1.487,1.487,0,0,1-.636-.578,1.663,1.663,0,0,1-.22-.863,2.378,2.378,0,0,1,.294-1.179,2.149,2.149,0,0,1,.835-.835,2.463,2.463,0,0,1,1.234-.305,2.2,2.2,0,0,1,.989.207,1.48,1.48,0,0,1,.636.578,1.657,1.657,0,0,1,.221.862,2.38,2.38,0,0,1-.3,1.179,2.141,2.141,0,0,1-.834.834,2.458,2.458,0,0,1-1.234.306A2.2,2.2,0,0,1,310,304.815Zm1.879-.644a1.519,1.519,0,0,0,.557-.6,1.762,1.762,0,0,0,.2-.824,1.007,1.007,0,0,0-.311-.774,1.243,1.243,0,0,0-.879-.289,1.536,1.536,0,0,0-.829.223,1.485,1.485,0,0,0-.554.6,1.783,1.783,0,0,0-.193.824,1.014,1.014,0,0,0,.309.774,1.235,1.235,0,0,0,.876.289A1.547,1.547,0,0,0,311.877,304.171Z" transform="translate(-275.901 -301.056)"/>
      <path id="Tracé_27" data-name="Tracé 27" d="M319.74,303.244a1.537,1.537,0,0,1-.832.531L319.6,305h-.76l-.634-1.129h-.959l-.22,1.129H316.3l.772-3.857h1.5a1.7,1.7,0,0,1,1.082.305,1.037,1.037,0,0,1,.383.857A1.485,1.485,0,0,1,319.74,303.244Zm-.71-.2a.822.822,0,0,0,.286-.675.54.54,0,0,0-.213-.465,1.007,1.007,0,0,0-.608-.157h-.821l-.309,1.531h.854A1.251,1.251,0,0,0,319.03,303.045Z" transform="translate(-278.507 -301.087)"/>
      <path id="Tracé_28" data-name="Tracé 28" d="M324.067,301.748h-1.278l.121-.606h3.272l-.127.606h-1.278l-.644,3.25h-.716Z" transform="translate(-280.866 -301.087)"/>
    </g>
    <g id="Groupe_4" data-name="Groupe 4" transform="translate(196 299.426)">
      <path id="Tracé_29" data-name="Tracé 29" d="M256.114,313.225h-1.278l.122-.606h3.272l-.127.606h-1.278l-.644,3.25h-.716Z" transform="translate(-254.836 -312.564)"/>
      <path id="Tracé_30" data-name="Tracé 30" d="M261.167,313.22l-.2,1h1.868l-.116.589h-1.873l-.209,1.064h2.181l-.121.6h-2.893l.772-3.857h2.815l-.122.6Z" transform="translate(-256.644 -312.564)"/>
      <path id="Tracé_31" data-name="Tracé 31" d="M269.046,314.721a1.538,1.538,0,0,1-.831.531l.688,1.223h-.76l-.634-1.129h-.958l-.221,1.129h-.721l.771-3.857h1.5a1.7,1.7,0,0,1,1.083.305,1.036,1.036,0,0,1,.383.857A1.486,1.486,0,0,1,269.046,314.721Zm-.711-.2a.822.822,0,0,0,.286-.675.541.541,0,0,0-.212-.465,1,1,0,0,0-.609-.157h-.821l-.309,1.531h.854A1.249,1.249,0,0,0,268.336,314.522Z" transform="translate(-258.755 -312.564)"/>
      <path id="Tracé_32" data-name="Tracé 32" d="M275.376,314.721a1.539,1.539,0,0,1-.831.531l.688,1.223h-.76l-.634-1.129h-.958l-.221,1.129h-.721l.771-3.857h1.5a1.7,1.7,0,0,1,1.083.305,1.036,1.036,0,0,1,.382.857A1.485,1.485,0,0,1,275.376,314.721Zm-.711-.2a.822.822,0,0,0,.286-.675.541.541,0,0,0-.212-.465,1,1,0,0,0-.609-.157h-.821L273,314.757h.854A1.248,1.248,0,0,0,274.666,314.522Z" transform="translate(-261.059 -312.564)"/>
      <path id="Tracé_33" data-name="Tracé 33" d="M279.629,313.22l-.2,1H281.3l-.115.589H279.31l-.209,1.064h2.181l-.121.6h-2.892l.771-3.857h2.815l-.121.6Z" transform="translate(-263.361 -312.564)"/>
      <path id="Tracé_34" data-name="Tracé 34" d="M284.346,316.373a1.8,1.8,0,0,1-.639-.326l.3-.562a1.877,1.877,0,0,0,.576.306,2.116,2.116,0,0,0,.68.113,1.341,1.341,0,0,0,.676-.146.446.446,0,0,0,.25-.4.315.315,0,0,0-.1-.24.791.791,0,0,0-.253-.157q-.152-.061-.422-.138a5.189,5.189,0,0,1-.606-.213,1.057,1.057,0,0,1-.4-.306.811.811,0,0,1-.165-.528,1.059,1.059,0,0,1,.212-.656,1.357,1.357,0,0,1,.592-.435,2.311,2.311,0,0,1,.876-.154,2.9,2.9,0,0,1,.711.085,1.981,1.981,0,0,1,.578.239l-.281.568a1.715,1.715,0,0,0-.485-.221,2.025,2.025,0,0,0-.562-.077,1.268,1.268,0,0,0-.68.157.473.473,0,0,0-.251.416.326.326,0,0,0,.1.247.773.773,0,0,0,.253.157q.149.058.436.146a5.233,5.233,0,0,1,.595.2,1.056,1.056,0,0,1,.394.291.756.756,0,0,1,.163.5,1.067,1.067,0,0,1-.212.661,1.356,1.356,0,0,1-.6.435,2.391,2.391,0,0,1-.89.154A2.871,2.871,0,0,1,284.346,316.373Z" transform="translate(-265.34 -312.533)"/>
      <path id="Tracé_35" data-name="Tracé 35" d="M290.951,313.225h-1.278l.122-.606h3.272l-.127.606h-1.278l-.644,3.25H290.3Z" transform="translate(-267.51 -312.564)"/>
      <path id="Tracé_36" data-name="Tracé 36" d="M298.081,314.721a1.536,1.536,0,0,1-.831.531l.688,1.223h-.76l-.634-1.129h-.958l-.221,1.129h-.721l.771-3.857h1.5a1.7,1.7,0,0,1,1.082.305,1.036,1.036,0,0,1,.383.857A1.486,1.486,0,0,1,298.081,314.721Zm-.711-.2a.823.823,0,0,0,.287-.675.542.542,0,0,0-.213-.465,1,1,0,0,0-.609-.157h-.821l-.309,1.531h.854A1.248,1.248,0,0,0,297.371,314.522Z" transform="translate(-269.319 -312.564)"/>
      <path id="Tracé_37" data-name="Tracé 37" d="M302.335,313.22l-.2,1H304l-.116.589h-1.874l-.209,1.064h2.181l-.122.6h-2.892l.771-3.857h2.815l-.121.6Z" transform="translate(-271.622 -312.564)"/>
    </g>
    <path id="Tracé_38" data-name="Tracé 38" d="M108.063,282.643v-2.1l-6.132,4.245,6.132,4.245v-2.1h5.307c3.375,0,4.1,1.687,3.566,3.643l-2.454,9.166c-.69,2.608-2.876,3.682-5.561,3.682h-15.8l1.649-6.136h13.576l1.151-4.257h-9.2c-3.375,0-4.1-1.725-3.605-3.682l2.454-9.128c.69-2.569,2.915-3.643,5.561-3.643h14.88l-1.649,6.1Z" transform="translate(0 -0.022)" fill="#fff"/>
  </g>
</svg>
