<svg id="gestion-de-projet" xmlns="http://www.w3.org/2000/svg" width="33.547" height="41" viewBox="0 0 33.547 41">
  <path id="Tracé_386" data-name="Tracé 386" d="M33.841,4.727h-4.75V4.355A1.493,1.493,0,0,0,27.6,2.864H23a3.721,3.721,0,0,0-6.448,0h-4.6a1.493,1.493,0,0,0-1.491,1.491v.373H5.7A2.707,2.707,0,0,0,3,7.431V39.3A2.707,2.707,0,0,0,5.7,42H33.843a2.707,2.707,0,0,0,2.7-2.7V7.431a2.71,2.71,0,0,0-2.706-2.7Zm-21.523,0h4.827a.933.933,0,0,0,.881-.628,1.853,1.853,0,0,1,3.494,0,.929.929,0,0,0,.88.628h4.827V8.455H12.318ZM34.682,39.3a.841.841,0,0,1-.84.84H5.7a.841.841,0,0,1-.841-.84V7.431a.841.841,0,0,1,.841-.84h4.75V8.827a1.493,1.493,0,0,0,1.491,1.491H27.6a1.493,1.493,0,0,0,1.491-1.491V6.591h4.75a.841.841,0,0,1,.84.841Z" transform="translate(-3 -1)"/>
  <path id="Tracé_387" data-name="Tracé 387" d="M30.159,7H5.932A.932.932,0,0,0,5,7.932V32.159a.932.932,0,0,0,.932.932H30.159a.932.932,0,0,0,.932-.932V7.932A.932.932,0,0,0,30.159,7Zm-.932,24.227H6.864V8.864H29.227Z" transform="translate(-1.273 4.182)"/>
  <path id="Tracé_388" data-name="Tracé 388" d="M7.932,20.591h3.727a.932.932,0,0,0,.932-.932V15.932A.932.932,0,0,0,11.659,15H7.932A.932.932,0,0,0,7,15.932v3.727A.932.932,0,0,0,7.932,20.591Zm.932-3.727h1.864v1.864H8.864Z" transform="translate(0.455 11.091)"/>
  <path id="Tracé_389" data-name="Tracé 389" d="M7.932,15.591h3.727a.932.932,0,0,0,.932-.932V10.932A.932.932,0,0,0,11.659,10H7.932A.932.932,0,0,0,7,10.932v3.727A.932.932,0,0,0,7.932,15.591Zm.932-3.727h1.864v1.864H8.864Z" transform="translate(0.455 6.773)"/>
  <path id="Tracé_390" data-name="Tracé 390" d="M11.932,16.864h5.591a.932.932,0,1,0,0-1.864H11.932a.932.932,0,1,0,0,1.864Z" transform="translate(3.909 11.091)"/>
  <path id="Tracé_391" data-name="Tracé 391" d="M11.932,18.864H21.25a.932.932,0,1,0,0-1.864H11.932a.932.932,0,1,0,0,1.864Z" transform="translate(3.909 12.818)"/>
  <path id="Tracé_392" data-name="Tracé 392" d="M11.932,11.864h5.591a.932.932,0,0,0,0-1.864H11.932a.932.932,0,0,0,0,1.864Z" transform="translate(3.909 6.773)"/>
  <path id="Tracé_393" data-name="Tracé 393" d="M11.932,13.864H21.25a.932.932,0,0,0,0-1.864H11.932a.932.932,0,0,0,0,1.864Z" transform="translate(3.909 8.5)"/>
</svg>
