<svg id="informations-personnelles" xmlns="http://www.w3.org/2000/svg" width="35.409" height="41" viewBox="0 0 35.409 41">
  <path id="Tracé_394" data-name="Tracé 394" d="M35.423,4.727H34.182V3.484A2.489,2.489,0,0,0,31.7,1H4.986A2.489,2.489,0,0,0,2.5,3.484v32.3a2.489,2.489,0,0,0,2.486,2.486H6.227v1.243A2.489,2.489,0,0,0,8.713,42h26.71a2.489,2.489,0,0,0,2.486-2.484V7.212A2.489,2.489,0,0,0,35.423,4.727ZM4.364,35.788V3.484a.621.621,0,0,1,.622-.621H31.7a.621.621,0,0,1,.622.621v32.3a.621.621,0,0,1-.622.621H4.986a.618.618,0,0,1-.622-.619Zm31.682,3.727a.621.621,0,0,1-.622.621H8.713a.621.621,0,0,1-.622-.621V38.273H31.7a2.489,2.489,0,0,0,2.486-2.484V6.591h1.241a.621.621,0,0,1,.622.621Z" transform="translate(-2.5 -1)"/>
  <path id="Tracé_395" data-name="Tracé 395" d="M25.068,3H6.432a.932.932,0,0,0-.932.932V20.7a.932.932,0,0,0,.932.932H25.068A.932.932,0,0,0,26,20.7V3.932A.932.932,0,0,0,25.068,3ZM11.2,19.773a4.635,4.635,0,0,1,9.091,0Zm12.932,0H22.178a6.49,6.49,0,0,0-12.855,0H7.364V4.864H24.136Z" transform="translate(0.091 0.727)"/>
  <path id="Tracé_396" data-name="Tracé 396" d="M12.3,10.591A2.8,2.8,0,1,0,9.5,7.8,2.8,2.8,0,0,0,12.3,10.591Zm0-3.727a.932.932,0,1,1-.932.932A.933.933,0,0,1,12.3,6.864Z" transform="translate(3.545 2.455)"/>
  <path id="Tracé_397" data-name="Tracé 397" d="M22.341,15.864a.932.932,0,1,0,0-1.864H7.432a.932.932,0,1,0,0,1.864Z" transform="translate(0.955 10.227)"/>
  <path id="Tracé_398" data-name="Tracé 398" d="M25.068,16H6.432a.932.932,0,1,0,0,1.864H25.068a.932.932,0,1,0,0-1.864Z" transform="translate(0.091 11.955)"/>
  <path id="Tracé_399" data-name="Tracé 399" d="M25.068,18H6.432a.932.932,0,1,0,0,1.864H25.068a.932.932,0,1,0,0-1.864Z" transform="translate(0.091 13.682)"/>
</svg>
