<svg xmlns="http://www.w3.org/2000/svg" width="70.866" height="70.866" viewBox="0 0 70.866 70.866">
  <g id="Groupe_1987" data-name="Groupe 1987" transform="translate(-256.713 -116.572)">
    <rect id="Rectangle_1637" data-name="Rectangle 1637" width="70.866" height="70.866" transform="translate(256.713 116.572)" fill="#ffca07"/>
    <path id="Tracé_45430" data-name="Tracé 45430" d="M305,146.048h-14.78l-8.215,9.2H305Z" fill="#1b1b1a"/>
    <g id="Groupe_1851" data-name="Groupe 1851">
      <path id="Tracé_45431" data-name="Tracé 45431" d="M286.605,169.151v-.211a2.982,2.982,0,0,1,5.628-1.379l-1.224.606a1.61,1.61,0,0,0-1.416-.847,1.626,1.626,0,0,0-1.621,1.62v.211a1.626,1.626,0,0,0,1.621,1.62,1.593,1.593,0,0,0,1.2-.538h-1.28v-1.367h3.062v.285a2.984,2.984,0,0,1-5.969,0Z" fill="#1b1b1a"/>
      <path id="Tracé_45432" data-name="Tracé 45432" d="M293.193,165.947h3.469a2.054,2.054,0,0,1,.582,4.026l1.478,2.159h-1.658l-1.416-2.072-.056-.087H295.1l.464-1.28h1.094a.69.69,0,1,0,0-1.379h-2.1v4.818h-1.367v-6.185Z" fill="#1b1b1a"/>
      <path id="Tracé_45433" data-name="Tracé 45433" d="M302.136,165.947a3,3,0,0,1,2.987,2.987v.217a2.984,2.984,0,0,1-5.968,0v-.217A3,3,0,0,1,302.136,165.947Zm0,1.367a1.626,1.626,0,0,0-1.62,1.62v.217a1.62,1.62,0,0,0,3.241,0v-.217A1.626,1.626,0,0,0,302.136,167.314Z" fill="#1b1b1a"/>
      <path id="Tracé_45434" data-name="Tracé 45434" d="M308.482,172.132a2.653,2.653,0,0,1-1.372-.371,2.745,2.745,0,0,1-1.367-2.369v-3.445h1.367v3.445a1.373,1.373,0,1,0,2.745,0v-3.445h1.361v3.445a2.752,2.752,0,0,1-1.361,2.369A2.688,2.688,0,0,1,308.482,172.132Z" fill="#1b1b1a"/>
      <path id="Tracé_45435" data-name="Tracé 45435" d="M315.3,165.947a2.056,2.056,0,0,1,0,4.113h-1.59l.495-1.367h1.1a.69.69,0,1,0,0-1.379h-2.1v4.818h-1.367v-6.185h3.47Z" fill="#1b1b1a"/>
      <path id="Tracé_45436" data-name="Tracé 45436" d="M319.338,169.726v1.045h3.642v1.361h-5v-6.185h5v1.367h-3.642v2.412Zm1.014-1.367h2.2v1.367h-2.7Z" fill="#1b1b1a"/>
    </g>
    <g id="Groupe_1852" data-name="Groupe 1852">
      <path id="Tracé_45437" data-name="Tracé 45437" d="M286.605,179.863v-.21a2.975,2.975,0,0,1,1.362-2.495,2.943,2.943,0,0,1,1.614-.481,2.973,2.973,0,0,1,2.631,1.6l-1.22.6a1.609,1.609,0,0,0-3.025.77v.21a1.62,1.62,0,0,0,1.614,1.614,1.589,1.589,0,0,0,1.2-.536H289.5V179.58h3.05v.283a2.979,2.979,0,0,1-2.97,2.976,2.988,2.988,0,0,1-2.976-2.976Z" fill="#1b1b1a"/>
      <path id="Tracé_45438" data-name="Tracé 45438" d="M296.137,176.671a2.986,2.986,0,0,1,2.976,2.976v.216a2.973,2.973,0,0,1-5.945,0v-.216A2.985,2.985,0,0,1,296.137,176.671Zm0,1.362a1.62,1.62,0,0,0-1.614,1.614v.216a1.615,1.615,0,0,0,3.229,0v-.216A1.62,1.62,0,0,0,296.137,178.033Z" fill="#1b1b1a"/>
      <path id="Tracé_45439" data-name="Tracé 45439" d="M299.73,182.833v-6.162H302.6a2.875,2.875,0,0,1,2.859,2.866v.437a2.869,2.869,0,0,1-2.859,2.859H299.73Zm4.369-3.3a1.514,1.514,0,0,0-1.5-1.5h-1.509v3.444H302.6a1.518,1.518,0,0,0,1.5-1.5v-.437Z" fill="#1b1b1a"/>
      <path id="Tracé_45440" data-name="Tracé 45440" d="M306.071,182.833v-6.162h2.865a2.875,2.875,0,0,1,2.859,2.866v.437a2.869,2.869,0,0,1-2.859,2.859h-2.865Zm4.368-3.3a1.514,1.514,0,0,0-1.5-1.5h-1.51v3.444h1.51a1.517,1.517,0,0,0,1.5-1.5v-.437Z" fill="#1b1b1a"/>
      <path id="Tracé_45441" data-name="Tracé 45441" d="M313.767,176.671v6.162h-1.355v-6.162Z" fill="#1b1b1a"/>
    </g>
    <path id="Tracé_45442" data-name="Tracé 45442" d="M270.51,130.368H292.2l8.215-9.2h-39.1v52.471h20.695v-9.2h-11.5Z" fill="#1b1b1a"/>
  </g>
</svg>
