<svg xmlns="http://www.w3.org/2000/svg" width="212.551" height="38.222" viewBox="0 0 212.551 38.222">
  <g id="Groupe_5" data-name="Groupe 5" transform="translate(-93.121 -276.508)">
    <path id="Tracé_1" data-name="Tracé 1" d="M175.361,276.508l-10.21,38.222H152.2l-5.794-21.265-5.685,21.265h-10.36l10.266-38.222h13.3l5.507,20.937,5.616-20.937Z" transform="translate(-3.558)" fill="#f1ac04"/>
    <path id="Tracé_2" data-name="Tracé 2" d="M242.316,276.508H185.144l-2.345,8.67h9.487l-7.906,29.5H194.74l7.906-29.5h18.6l-7.906,29.5H223.7l7.906-29.5h8.391l5.789-4.325Z" transform="translate(-8.568 0)" fill="#f1ac04"/>
    <g id="Groupe_1" data-name="Groupe 1" transform="translate(246.749 276.508)">
      <path id="Tracé_3" data-name="Tracé 3" d="M263.886,283.561a2.565,2.565,0,0,1-.909-.463l.431-.8a2.663,2.663,0,0,0,.819.435,3.007,3.007,0,0,0,.968.16,1.9,1.9,0,0,0,.96-.207.635.635,0,0,0,.356-.568.452.452,0,0,0-.145-.341,1.12,1.12,0,0,0-.361-.223q-.216-.087-.6-.2a7.369,7.369,0,0,1-.861-.3,1.494,1.494,0,0,1-.564-.435,1.147,1.147,0,0,1-.235-.751,1.5,1.5,0,0,1,.3-.932,1.93,1.93,0,0,1,.842-.619,3.285,3.285,0,0,1,1.245-.219,4.112,4.112,0,0,1,1.01.121,2.816,2.816,0,0,1,.822.34l-.4.808a2.438,2.438,0,0,0-.689-.314,2.893,2.893,0,0,0-.8-.109,1.8,1.8,0,0,0-.967.223.672.672,0,0,0-.356.592.466.466,0,0,0,.148.352,1.093,1.093,0,0,0,.36.223c.141.055.348.124.62.207a7.392,7.392,0,0,1,.846.29,1.493,1.493,0,0,1,.56.414,1.075,1.075,0,0,1,.232.714,1.517,1.517,0,0,1-.3.94,1.93,1.93,0,0,1-.853.619,3.408,3.408,0,0,1-1.265.219A4.084,4.084,0,0,1,263.886,283.561Z" transform="translate(-262.977 -276.66)"/>
      <path id="Tracé_4" data-name="Tracé 4" d="M270.135,283.446a2.112,2.112,0,0,1-.9-.821,2.363,2.363,0,0,1-.313-1.226,3.381,3.381,0,0,1,.419-1.676,3.053,3.053,0,0,1,1.187-1.187,3.5,3.5,0,0,1,1.755-.434,3.121,3.121,0,0,1,1.405.294,2.1,2.1,0,0,1,.9.822,2.355,2.355,0,0,1,.314,1.226,3.383,3.383,0,0,1-.42,1.676,3.053,3.053,0,0,1-1.186,1.187,3.5,3.5,0,0,1-1.755.434A3.123,3.123,0,0,1,270.135,283.446Zm2.671-.915a2.16,2.16,0,0,0,.791-.854,2.5,2.5,0,0,0,.278-1.171,1.427,1.427,0,0,0-.442-1.1,1.763,1.763,0,0,0-1.249-.412,2.183,2.183,0,0,0-1.178.317,2.111,2.111,0,0,0-.788.853,2.536,2.536,0,0,0-.274,1.171,1.439,1.439,0,0,0,.439,1.1,1.756,1.756,0,0,0,1.245.411A2.2,2.2,0,0,0,272.806,282.531Z" transform="translate(-263.545 -276.66)"/>
      <path id="Tracé_5" data-name="Tracé 5" d="M277.45,283.446a2.135,2.135,0,0,1-.92-.826,2.318,2.318,0,0,1-.321-1.222,3.356,3.356,0,0,1,.422-1.676,3.088,3.088,0,0,1,1.19-1.187,3.52,3.52,0,0,1,1.763-.434,3.139,3.139,0,0,1,1.257.235,1.771,1.771,0,0,1,.826.681l-.736.619a1.627,1.627,0,0,0-1.417-.642,2.258,2.258,0,0,0-1.2.314,2.137,2.137,0,0,0-.8.849,2.5,2.5,0,0,0-.281,1.179,1.423,1.423,0,0,0,.446,1.1,1.818,1.818,0,0,0,1.269.407,2.07,2.07,0,0,0,1.559-.634l.594.642a2.4,2.4,0,0,1-.962.666,3.513,3.513,0,0,1-1.269.219A3.191,3.191,0,0,1,277.45,283.446Z" transform="translate(-264.241 -276.66)"/>
      <path id="Tracé_6" data-name="Tracé 6" d="M283.471,278.188h1.017l-1.1,5.483h-1.018Z" transform="translate(-264.83 -276.669)"/>
      <path id="Tracé_7" data-name="Tracé 7" d="M287.071,278.881l-.281,1.425h2.655l-.165.838h-2.664l-.3,1.512h3.1l-.173.854h-4.112l1.1-5.483h4l-.173.854Zm1.763-2.373h1.175l-1.481,1.073h-.877Z" transform="translate(-265.094 -276.508)"/>
      <path id="Tracé_8" data-name="Tracé 8" d="M293,279.05h-1.817l.172-.862h4.653l-.18.862h-1.817l-.916,4.621h-1.018Z" transform="translate(-265.672 -276.669)"/>
      <path id="Tracé_9" data-name="Tracé 9" d="M298.086,278.881l-.281,1.425h2.656l-.165.838h-2.664l-.3,1.512h3.1l-.173.854h-4.112l1.1-5.483h4l-.173.854Zm1.763-2.373h1.175l-1.481,1.073h-.877Z" transform="translate(-266.146 -276.508)"/>
    </g>
    <g id="Groupe_2" data-name="Groupe 2" transform="translate(244.021 288.33)">
      <path id="Tracé_10" data-name="Tracé 10" d="M265.92,289.665l-1.1,5.483h-.838l-2.249-3.838-.767,3.838H259.96l1.1-5.483h.838l2.256,3.838.76-3.838Z" transform="translate(-259.96 -289.587)"/>
      <path id="Tracé_11" data-name="Tracé 11" d="M268.322,294.923a2.113,2.113,0,0,1-.9-.821,2.363,2.363,0,0,1-.313-1.226,3.382,3.382,0,0,1,.419-1.676,3.052,3.052,0,0,1,1.186-1.187,3.5,3.5,0,0,1,1.755-.434,3.123,3.123,0,0,1,1.406.294,2.109,2.109,0,0,1,.9.822,2.355,2.355,0,0,1,.313,1.226,3.382,3.382,0,0,1-.419,1.676,3.048,3.048,0,0,1-1.187,1.187,3.5,3.5,0,0,1-1.755.434A3.122,3.122,0,0,1,268.322,294.923Zm2.671-.915a2.159,2.159,0,0,0,.791-.854,2.516,2.516,0,0,0,.278-1.171,1.431,1.431,0,0,0-.442-1.1,1.767,1.767,0,0,0-1.249-.411,2.187,2.187,0,0,0-1.179.317,2.116,2.116,0,0,0-.787.853,2.536,2.536,0,0,0-.274,1.171,1.439,1.439,0,0,0,.439,1.1,1.756,1.756,0,0,0,1.245.411A2.2,2.2,0,0,0,270.993,294.008Z" transform="translate(-260.643 -289.579)"/>
      <path id="Tracé_12" data-name="Tracé 12" d="M275.241,294.725a1.741,1.741,0,0,1-.568-1.378,3.175,3.175,0,0,1,.062-.587l.619-3.094h1.018l-.619,3.078a2.965,2.965,0,0,0-.054.486,1.047,1.047,0,0,0,.312.826,1.312,1.312,0,0,0,.9.279,1.451,1.451,0,0,0,1.054-.383,2.318,2.318,0,0,0,.568-1.215l.611-3.07h1l-.627,3.141a3.183,3.183,0,0,1-.924,1.813,2.585,2.585,0,0,1-1.785.607A2.287,2.287,0,0,1,275.241,294.725Z" transform="translate(-261.366 -289.587)"/>
      <path id="Tracé_13" data-name="Tracé 13" d="M287.233,289.665l-3.486,5.483h-1l-1.292-5.483h1.05l.979,4.214,2.694-4.214Z" transform="translate(-262.013 -289.587)"/>
      <path id="Tracé_14" data-name="Tracé 14" d="M289.216,290.519l-.282,1.425h2.655l-.165.838h-2.664l-.3,1.512h3.1l-.173.854h-4.112l1.1-5.483h4l-.173.854Z" transform="translate(-262.57 -289.587)"/>
      <path id="Tracé_15" data-name="Tracé 15" d="M294.18,289.665H295.2l-.923,4.621h2.866l-.173.862h-3.885Z" transform="translate(-263.124 -289.587)"/>
      <path id="Tracé_16" data-name="Tracé 16" d="M299.366,289.665h1.018l-.924,4.621h2.867l-.173.862H298.27Z" transform="translate(-263.62 -289.587)"/>
      <path id="Tracé_17" data-name="Tracé 17" d="M305.392,290.519l-.282,1.425h2.656l-.165.838h-2.664l-.3,1.512h3.1l-.173.854h-4.112l1.1-5.483h4l-.172.854Z" transform="translate(-264.116 -289.587)"/>
    </g>
    <g id="Groupe_3" data-name="Groupe 3" transform="translate(241.245 298.711)">
      <path id="Tracé_18" data-name="Tracé 18" d="M257.987,301.142H260.2a3.365,3.365,0,0,1,1.425.279,2.071,2.071,0,0,1,.92.787,2.215,2.215,0,0,1,.317,1.2,3.286,3.286,0,0,1-.427,1.691,2.909,2.909,0,0,1-1.2,1.129,3.853,3.853,0,0,1-1.786.4h-2.561Zm1.5,4.621a2.525,2.525,0,0,0,1.254-.3,2.057,2.057,0,0,0,.818-.819,2.4,2.4,0,0,0,.286-1.178,1.352,1.352,0,0,0-.446-1.077,1.932,1.932,0,0,0-1.3-.387h-1.261l-.752,3.759Z" transform="translate(-256.891 -301.064)"/>
      <path id="Tracé_19" data-name="Tracé 19" d="M265.978,302l-.282,1.425h2.656l-.165.838h-2.663l-.3,1.512h3.1l-.172.854h-4.113l1.1-5.483h4l-.173.854Z" transform="translate(-257.574 -301.064)"/>
      <path id="Tracé_20" data-name="Tracé 20" d="M274.294,302h-1.817l.173-.862H277.3l-.18.862H275.3l-.916,4.621h-1.018Z" transform="translate(-258.38 -301.064)"/>
      <path id="Tracé_21" data-name="Tracé 21" d="M282.335,304.13a2.184,2.184,0,0,1-1.182.755l.98,1.739h-1.081l-.9-1.605h-1.363l-.313,1.605h-1.027l1.1-5.483h2.13a2.411,2.411,0,0,1,1.539.434,1.474,1.474,0,0,1,.544,1.218A2.112,2.112,0,0,1,282.335,304.13Zm-1.009-.282a1.169,1.169,0,0,0,.407-.96.768.768,0,0,0-.3-.661,1.432,1.432,0,0,0-.865-.223H279.4l-.439,2.177h1.215A1.778,1.778,0,0,0,281.325,303.848Z" transform="translate(-258.855 -301.064)"/>
      <path id="Tracé_22" data-name="Tracé 22" d="M287.557,305.356H284.8l-.79,1.269h-1.089l3.564-5.483h1.01l1.363,5.483h-1.01Zm-.187-.8-.556-2.411-1.512,2.411Z" transform="translate(-259.378 -301.064)"/>
      <path id="Tracé_23" data-name="Tracé 23" d="M296.224,301.142l-1.1,5.483h-.838l-2.248-3.838-.767,3.838h-1.01l1.1-5.483h.838l2.256,3.838.76-3.838Z" transform="translate(-260.079 -301.064)"/>
      <path id="Tracé_24" data-name="Tracé 24" d="M297.823,306.515a2.574,2.574,0,0,1-.909-.463l.431-.8a2.643,2.643,0,0,0,.819.435,3,3,0,0,0,.967.16,1.9,1.9,0,0,0,.96-.207.635.635,0,0,0,.356-.568.452.452,0,0,0-.145-.341,1.124,1.124,0,0,0-.36-.223c-.144-.058-.345-.123-.6-.2a7.32,7.32,0,0,1-.861-.3,1.489,1.489,0,0,1-.564-.435,1.154,1.154,0,0,1-.235-.751,1.5,1.5,0,0,1,.3-.933,1.929,1.929,0,0,1,.842-.619,3.29,3.29,0,0,1,1.245-.219,4.107,4.107,0,0,1,1.01.121,2.822,2.822,0,0,1,.823.34l-.4.808a2.422,2.422,0,0,0-.689-.314,2.886,2.886,0,0,0-.8-.109,1.808,1.808,0,0,0-.968.223.672.672,0,0,0-.356.592.466.466,0,0,0,.148.352,1.1,1.1,0,0,0,.361.223q.212.083.619.207a7.406,7.406,0,0,1,.846.29,1.493,1.493,0,0,1,.56.414,1.07,1.07,0,0,1,.232.714,1.512,1.512,0,0,1-.3.94,1.929,1.929,0,0,1-.853.619,3.405,3.405,0,0,1-1.265.219A4.088,4.088,0,0,1,297.823,306.515Z" transform="translate(-260.715 -301.056)"/>
      <path id="Tracé_25" data-name="Tracé 25" d="M307.475,301.576a1.474,1.474,0,0,1,.545,1.218,2.216,2.216,0,0,1-.317,1.2,2.038,2.038,0,0,1-.908.775,3.335,3.335,0,0,1-1.39.27h-1.34l-.321,1.583h-1.018l1.1-5.483h2.115A2.411,2.411,0,0,1,307.475,301.576Zm-.885,2.272a1.175,1.175,0,0,0,.4-.96.77.77,0,0,0-.3-.661,1.433,1.433,0,0,0-.866-.223h-1.159l-.431,2.177h1.207A1.759,1.759,0,0,0,306.591,303.848Z" transform="translate(-261.27 -301.064)"/>
      <path id="Tracé_26" data-name="Tracé 26" d="M310.359,306.4a2.113,2.113,0,0,1-.9-.821,2.363,2.363,0,0,1-.313-1.227,3.381,3.381,0,0,1,.419-1.676,3.054,3.054,0,0,1,1.187-1.187,3.5,3.5,0,0,1,1.755-.434,3.122,3.122,0,0,1,1.406.294,2.1,2.1,0,0,1,.9.822,2.356,2.356,0,0,1,.314,1.226,3.382,3.382,0,0,1-.42,1.676,3.044,3.044,0,0,1-1.186,1.186,3.494,3.494,0,0,1-1.755.435A3.123,3.123,0,0,1,310.359,306.4Zm2.671-.915a2.159,2.159,0,0,0,.791-.854,2.505,2.505,0,0,0,.278-1.171,1.431,1.431,0,0,0-.442-1.1,1.767,1.767,0,0,0-1.249-.411,2.184,2.184,0,0,0-1.178.318,2.111,2.111,0,0,0-.788.853,2.535,2.535,0,0,0-.274,1.171,1.441,1.441,0,0,0,.439,1.1,1.755,1.755,0,0,0,1.245.411A2.2,2.2,0,0,0,313.03,305.485Z" transform="translate(-261.883 -301.056)"/>
      <path id="Tracé_27" data-name="Tracé 27" d="M321.19,304.13a2.184,2.184,0,0,1-1.182.755l.98,1.739h-1.081l-.9-1.605h-1.363l-.313,1.605H316.3l1.1-5.483h2.13a2.411,2.411,0,0,1,1.539.434,1.474,1.474,0,0,1,.544,1.218A2.112,2.112,0,0,1,321.19,304.13Zm-1.009-.282a1.169,1.169,0,0,0,.407-.96.768.768,0,0,0-.3-.661,1.431,1.431,0,0,0-.865-.223h-1.168l-.439,2.177h1.215A1.778,1.778,0,0,0,320.18,303.848Z" transform="translate(-262.567 -301.064)"/>
      <path id="Tracé_28" data-name="Tracé 28" d="M324.606,302h-1.817l.173-.862h4.652l-.18.862h-1.817l-.916,4.621h-1.018Z" transform="translate(-263.187 -301.064)"/>
    </g>
    <g id="Groupe_4" data-name="Groupe 4" transform="translate(239.386 309.091)">
      <path id="Tracé_29" data-name="Tracé 29" d="M256.653,313.481h-1.817l.173-.862h4.652l-.18.862h-1.817l-.916,4.621H255.73Z" transform="translate(-254.836 -312.541)"/>
      <path id="Tracé_30" data-name="Tracé 30" d="M261.741,313.473l-.282,1.425h2.655l-.165.837h-2.663l-.3,1.512h3.1l-.172.854h-4.113l1.1-5.483h4l-.173.854Z" transform="translate(-255.311 -312.541)"/>
      <path id="Tracé_31" data-name="Tracé 31" d="M270.5,315.607a2.188,2.188,0,0,1-1.182.755l.979,1.739h-1.081l-.9-1.605h-1.362l-.314,1.605h-1.026l1.1-5.483h2.13a2.415,2.415,0,0,1,1.539.434,1.473,1.473,0,0,1,.545,1.218A2.112,2.112,0,0,1,270.5,315.607Zm-1.01-.282a1.169,1.169,0,0,0,.407-.96.77.77,0,0,0-.3-.661,1.427,1.427,0,0,0-.866-.223h-1.167l-.439,2.177h1.214A1.775,1.775,0,0,0,269.486,315.325Z" transform="translate(-255.865 -312.541)"/>
      <path id="Tracé_32" data-name="Tracé 32" d="M276.826,315.607a2.188,2.188,0,0,1-1.182.755l.979,1.739h-1.081l-.9-1.605h-1.362l-.314,1.605h-1.026l1.1-5.483h2.13a2.416,2.416,0,0,1,1.539.434,1.472,1.472,0,0,1,.544,1.218A2.112,2.112,0,0,1,276.826,315.607Zm-1.01-.282a1.169,1.169,0,0,0,.407-.96.77.77,0,0,0-.3-.661,1.427,1.427,0,0,0-.866-.223h-1.167l-.439,2.177h1.214A1.775,1.775,0,0,0,275.816,315.325Z" transform="translate(-256.47 -312.541)"/>
      <path id="Tracé_33" data-name="Tracé 33" d="M280.2,313.473l-.282,1.425h2.655l-.164.837h-2.664l-.3,1.512h3.1l-.172.854h-4.112l1.1-5.483h4l-.173.854Z" transform="translate(-257.075 -312.541)"/>
      <path id="Tracé_34" data-name="Tracé 34" d="M284.616,317.992a2.558,2.558,0,0,1-.909-.463l.431-.8a2.666,2.666,0,0,0,.819.435,3.007,3.007,0,0,0,.967.16,1.907,1.907,0,0,0,.961-.207.635.635,0,0,0,.355-.568.448.448,0,0,0-.145-.341,1.124,1.124,0,0,0-.36-.223q-.216-.087-.6-.2a7.386,7.386,0,0,1-.861-.3,1.5,1.5,0,0,1-.564-.435,1.154,1.154,0,0,1-.234-.751,1.5,1.5,0,0,1,.3-.932,1.929,1.929,0,0,1,.842-.619,3.284,3.284,0,0,1,1.245-.219,4.118,4.118,0,0,1,1.01.121,2.816,2.816,0,0,1,.822.34l-.4.808a2.438,2.438,0,0,0-.69-.314,2.883,2.883,0,0,0-.8-.109,1.8,1.8,0,0,0-.967.223.673.673,0,0,0-.357.592.463.463,0,0,0,.149.352,1.1,1.1,0,0,0,.36.223q.212.083.62.207a7.461,7.461,0,0,1,.846.29,1.5,1.5,0,0,1,.56.414,1.074,1.074,0,0,1,.232.714,1.517,1.517,0,0,1-.3.94,1.927,1.927,0,0,1-.854.619,3.4,3.4,0,0,1-1.265.219A4.081,4.081,0,0,1,284.616,317.992Z" transform="translate(-257.594 -312.533)"/>
      <path id="Tracé_35" data-name="Tracé 35" d="M291.49,313.481h-1.817l.173-.862H294.5l-.18.862H292.5l-.916,4.621h-1.018Z" transform="translate(-258.164 -312.541)"/>
      <path id="Tracé_36" data-name="Tracé 36" d="M299.531,315.607a2.184,2.184,0,0,1-1.182.755l.979,1.739h-1.081l-.9-1.605h-1.362l-.314,1.605h-1.026l1.1-5.483h2.131a2.411,2.411,0,0,1,1.538.434,1.473,1.473,0,0,1,.545,1.218A2.112,2.112,0,0,1,299.531,315.607Zm-1.01-.282a1.17,1.17,0,0,0,.408-.96.77.77,0,0,0-.3-.661,1.427,1.427,0,0,0-.866-.223h-1.167l-.439,2.177h1.214A1.775,1.775,0,0,0,298.521,315.325Z" transform="translate(-258.639 -312.541)"/>
      <path id="Tracé_37" data-name="Tracé 37" d="M302.909,313.473l-.282,1.425h2.655l-.165.837h-2.664l-.3,1.512h3.1l-.173.854h-4.112l1.1-5.483h4l-.173.854Z" transform="translate(-259.244 -312.541)"/>
    </g>
    <path id="Tracé_38" data-name="Tracé 38" d="M114.365,285.2v-2.992l-8.718,6.035,8.718,6.035V291.29h7.545c4.8,0,5.834,2.4,5.07,5.18L123.491,309.5c-.981,3.707-4.089,5.234-7.906,5.234H93.121l2.344-8.724h19.3l1.636-6.053H103.317c-4.8,0-5.834-2.453-5.126-5.234l3.489-12.977c.981-3.652,4.144-5.179,7.907-5.179h21.154l-2.344,8.669Z" transform="translate(0 -0.006)" fill="#f1ac04"/>
  </g>
</svg>
